<?xml version="1.0" encoding="UTF-8" standalone="no"?>
<!-- Created with Inkscape (http://www.inkscape.org/) -->

<svg
   width="1652.238"
   height="203.05882"
   viewBox="0 0 1652.238 203.05883"
   version="1.1"
   id="svg5"
   inkscape:version="1.2.2 (732a01da63, 2022-12-09)"
   sodipodi:docname="glassesherobackground.svg"
   xmlns:inkscape="http://www.inkscape.org/namespaces/inkscape"
   xmlns:sodipodi="http://sodipodi.sourceforge.net/DTD/sodipodi-0.dtd"
   xmlns="http://www.w3.org/2000/svg"
   xmlns:svg="http://www.w3.org/2000/svg">
  <sodipodi:namedview
     id="namedview7"
     pagecolor="#505050"
     bordercolor="#eeeeee"
     borderopacity="1"
     inkscape:showpageshadow="0"
     inkscape:pageopacity="0"
     inkscape:pagecheckerboard="0"
     inkscape:deskcolor="#505050"
     inkscape:document-units="px"
     showgrid="false"
     inkscape:zoom="0.89419544"
     inkscape:cx="612.28226"
     inkscape:cy="53.67954"
     inkscape:window-width="1920"
     inkscape:window-height="1057"
     inkscape:window-x="-8"
     inkscape:window-y="-8"
     inkscape:window-maximized="1"
     inkscape:current-layer="text303" />
  <defs
     id="defs2" />
  <g
     inkscape:label="Ebene 1"
     inkscape:groupmode="layer"
     id="layer1"
     transform="translate(-17.053235,5.419997)">
    <g
       aria-label="V"
       transform="scale(-1)"
       id="text400"
       style="font-weight:bold;font-size:333.333px;font-family:'Reem Kufi Fun';-inkscape-font-specification:'Reem Kufi Fun Bold';text-align:center;text-anchor:middle;fill:#171717;fill-opacity:1;stroke-width:30;stroke-linecap:round;stroke-linejoin:round" />
    <g
       aria-label="SPCTRALENSE"
       id="text303"
       style="font-weight:bold;font-size:333.333px;font-family:'Reem Kufi Fun';-inkscape-font-specification:'Reem Kufi Fun Bold';text-align:center;text-anchor:middle;fill:#056235;stroke-width:30;stroke-linecap:round;stroke-linejoin:round"
       transform="translate(58.982875,64.813673)">
      <path
         d="m 79.037709,-24.291177 q -9.430112,-5.16407 -19.309282,-8.53197 -9.65464,-3.3679 -18.18665,-3.3679 -10.55274,0 -16.61496,4.26598 -6.06221,4.26599 -6.06221,12.79803 0,5.83765 4.49053,10.55271 4.71505,4.4905604 11.8999,8.0829604 7.40938,3.59241 15.2678,6.5113 9.65464,3.5924 18.6357,9.2055496 8.981062,5.38864 14.818752,15.04327 5.837688,9.43012 5.837688,25.14697 0,12.57352 -6.511268,23.3508 -6.51127,10.77728 -19.084752,17.51302 -12.57348,6.511297 -30.98466,6.511297 -14.14517,0 -28.9639193,-4.265987 -14.5942207,-4.26605 -27.6167607,-13.4716 l 14.3697,-25.37148 q 8.5320107,6.28673 19.53381,10.32821 11.00179,4.04148 19.75833,4.04148 5.83769,0 11.67538,-1.57173 6.06221,-1.79617 9.87916,-5.83765 4.04148,-4.04148 4.04148,-11.22636 0,-4.93957 -3.3679,-8.98105 -3.14337,-4.04148 -8.75653,-7.40938 -5.38864,-3.3679 -11.89991,-5.83765 -7.6339,-2.91889 -15.71685,-6.7358 -8.0829593,-3.81698 -15.2677993,-9.20562 -6.9603204,-5.61314 -11.4508607,-13.6961096 -4.266,-8.3074604 -4.266,-20.2074004 0,-14.36969 6.28674,-24.9224 6.5112707,-10.55278 18.1866507,-16.615 11.6753793,-6.28673 26.9431793,-6.96031 19.98286,0 32.33182,4.71506 12.573482,4.71506 22.45265,11.22636 z"
         id="path566-9"
         style="font-weight:bold;font-size:333.333px;font-family:'Reem Kufi Fun';-inkscape-font-specification:'Reem Kufi Fun Bold';text-align:center;text-anchor:middle;fill:#056235;stroke-width:20.2074;stroke-linecap:round;stroke-linejoin:round" />
      <path
         d="m 167.40802,-64.256907 q 30.76013,0 47.15057,15.26784 16.39043,15.04326 16.39043,40.41474 0,10.1037004 -3.14337,20.43191 -2.91884,10.1037 -9.65464,18.41117 -6.51127,8.30753 -17.73759,13.4716 -11.00181,4.93957 -27.16771,4.93957 H 149.89496 V 100.9946 H 117.33861 V -64.256907 Z m 5.61317,81.27863 q 7.40936,0 12.34895,-2.46982 4.93959,-2.69432 7.6339,-6.5112296 2.91885,-4.04148 4.04148,-8.30747 1.34715,-4.26605 1.34715,-7.4093804 0,-2.46982 -0.8981,-6.5113 -0.67358,-4.26598 -3.14337,-8.53197 -2.46979,-4.26605 -7.6339,-7.18487 -4.93959,-2.91883 -13.47159,-2.91883 h -23.35075 v 49.84487 z"
         id="path568-4"
         style="font-weight:bold;font-size:333.333px;font-family:'Reem Kufi Fun';-inkscape-font-specification:'Reem Kufi Fun Bold';text-align:center;text-anchor:middle;fill:#056235;stroke-width:20.2074;stroke-linecap:round;stroke-linejoin:round" />
      <path
         d="m 390.94328,87.298493 q -2.69432,2.24531 -10.10369,6.06222 -7.18485,3.81698 -17.73759,6.735807 -10.55275,2.91882 -23.35076,2.69432 -19.53381,-0.44908 -35.02614,-6.960307 -15.2678,-6.7358 -26.04507,-18.18666 -10.55275,-11.45087 -16.16591,-26.26963 -5.61316,-14.8187 -5.61316,-31.6582 0,-18.8602496 5.61316,-34.5771 5.83769,-15.71684 16.39044,-27.16771 10.77727,-11.45086 25.59602,-17.73759 14.81875,-6.28672 32.78087,-6.28672 16.61496,0 29.41297,4.49049 12.79801,4.49055 20.88096,9.65469 l -12.79801,30.76012 q -5.61316,-4.26599 -15.04327,-8.75654 -9.20559,-4.71507 -21.33002,-4.71507 -12.57348,0 -23.57528,6.96031 -10.77728,6.96031 -17.51307,18.86025 -6.51127,11.6753604 -6.51127,26.71863 0,15.94142 6.06222,28.06586 6.06221,11.89988 17.28854,18.63568 11.22632,6.7358 26.2696,6.7358 13.24706,0 22.67718,-4.26599 9.43011,-4.26605 14.36969,-8.98111 z"
         id="path570-0"
         style="font-weight:bold;font-size:333.333px;font-family:'Reem Kufi Fun';-inkscape-font-specification:'Reem Kufi Fun Bold';text-align:center;text-anchor:middle;fill:#056235;stroke-width:20.2074;stroke-linecap:round;stroke-linejoin:round" />
      <path
         d="m 416.89522,-64.256907 h 111.36515 v 31.43376 H 488.07012 V 100.9946 H 455.51378 V -32.823147 h -38.61856 z"
         id="path572-8"
         style="font-weight:bold;font-size:333.333px;font-family:'Reem Kufi Fun';-inkscape-font-specification:'Reem Kufi Fun Bold';text-align:center;text-anchor:middle;fill:#056235;stroke-width:20.2074;stroke-linecap:round;stroke-linejoin:round" />
      <path
         d="m 604.28176,-64.256907 q 20.88092,0 35.25068,6.96037 14.36968,6.7358 21.77907,19.30925 7.63388,12.34895 7.63388,29.41296 0,10.1037004 -3.14339,20.20741 -2.91883,10.1037 -9.87913,18.41116 -6.73581,8.30747 -17.96217,13.47161 -11.22629,4.93956 -27.84129,4.93956 H 586.76868 V 100.9946 H 554.21231 V -64.256907 Z m 5.61315,81.27863 q 9.8792,0 15.26777,-4.04148 5.61321,-4.2659896 7.85846,-9.8791996 2.24524,-5.83765 2.24524,-10.5527104 0,-2.69433 -0.89808,-6.73581 -0.67358,-4.26598 -3.1434,-8.53197 -2.46975,-4.26605 -7.63388,-7.18487 -4.93957,-2.91883 -13.47161,-2.91883 h -23.35073 v 49.84487 z m 30.53561,20.2074 40.86382,63.765477 H 643.34935 L 601.58744,38.127213 Z"
         id="path574-5"
         style="font-weight:bold;font-size:333.333px;font-family:'Reem Kufi Fun';-inkscape-font-specification:'Reem Kufi Fun Bold';text-align:center;text-anchor:middle;fill:#056235;stroke-width:20.2074;stroke-linecap:round;stroke-linejoin:round" />
      <path
         d="m 900.9527,-64.088527 h 32.5563 v 133.81781 h 77.6861 V 101.16298 H 900.9527 Z"
         id="path578-1"
         style="font-weight:bold;font-size:333.333px;font-family:'Reem Kufi Fun';-inkscape-font-specification:'Reem Kufi Fun Bold';text-align:center;text-anchor:middle;fill:#056235;stroke-width:20.2074;stroke-linecap:round;stroke-linejoin:round" />
      <path
         d="m 1037.1471,-64.088527 h 112.7124 v 31.43376 h -80.156 V 2.5958434 h 70.9504 V 34.029603 h -70.9504 v 35.69968 h 83.2994 v 31.433697 h -115.8558 z"
         id="path580-8"
         style="font-weight:bold;font-size:333.333px;font-family:'Reem Kufi Fun';-inkscape-font-specification:'Reem Kufi Fun Bold';text-align:center;text-anchor:middle;fill:#056235;stroke-width:20.2074;stroke-linecap:round;stroke-linejoin:round" />
      <path
         d="M 1326.9177,107.89878 1201.632,-5.262547 l 9.6546,5.3886404 0.6736,101.0368866 h -33.0054 V -70.599757 h 1.3472 l 122.5914,112.71232 -7.1848,-3.14339 -0.6736,-103.0577 h 32.7809 V 107.89878 Z"
         id="path582-1"
         style="font-weight:bold;font-size:333.333px;font-family:'Reem Kufi Fun';-inkscape-font-specification:'Reem Kufi Fun Bold';text-align:center;text-anchor:middle;fill:#056235;stroke-width:20.2074;stroke-linecap:round;stroke-linejoin:round" />
      <path
         d="m 1456.1521,-24.122797 q -9.4302,-5.16407 -19.3093,-8.53197 -9.6547,-3.3679 -18.1867,-3.3679 -10.5527,0 -16.615,4.26598 -6.0622,4.26599 -6.0622,12.79803 0,5.83765 4.4906,10.55271 4.715,4.4905604 11.8999,8.0829604 7.4093,3.59241 15.2678,6.5113 9.6546,3.5924 18.6357,9.2055496 8.9811,5.38864 14.8187,15.04327 5.8377,9.43012 5.8377,25.14697 0,12.57352 -6.5113,23.3508 -6.5112,10.77728 -19.0847,17.51302 -12.5735,6.511297 -30.9846,6.511297 -14.1452,0 -28.964,-4.265987 -14.5942,-4.26605 -27.6168,-13.4716 l 14.3698,-25.37148 q 8.532,6.28673 19.5338,10.32821 11.0017,4.04148 19.7583,4.04148 5.8377,0 11.6753,-1.57173 6.0623,-1.79617 9.8792,-5.83765 4.0415,-4.04148 4.0415,-11.22636 0,-4.93957 -3.3679,-8.98105 -3.1434,-4.04148 -8.7565,-7.40938 -5.3887,-3.3679 -11.8999,-5.83765 -7.6339,-2.91889 -15.7168,-6.7358 -8.083,-3.81698 -15.2679,-9.20562 -6.9603,-5.61314 -11.4508,-13.6961096 -4.266,-8.3074604 -4.266,-20.2074004 0,-14.36969 6.2867,-24.9224 6.5113,-10.55278 18.1867,-16.615 11.6753,-6.28673 26.9432,-6.96031 19.9828,0 32.3318,4.71506 12.5735,4.71506 22.4526,11.22636 z"
         id="path584-9"
         style="font-weight:bold;font-size:333.333px;font-family:'Reem Kufi Fun';-inkscape-font-specification:'Reem Kufi Fun Bold';text-align:center;text-anchor:middle;fill:#056235;stroke-width:20.2074;stroke-linecap:round;stroke-linejoin:round" />
      <path
         d="m 1494.4529,-64.088527 h 112.7122 v 31.43376 h -80.1559 V 2.5958434 h 70.9504 V 34.029603 h -70.9504 v 35.69968 h 83.2993 v 31.433697 h -115.8556 z"
         id="path586-1"
         style="font-weight:bold;font-size:333.333px;font-family:'Reem Kufi Fun';-inkscape-font-specification:'Reem Kufi Fun Bold';text-align:center;text-anchor:middle;fill:#056235;stroke-width:20.2074;stroke-linecap:round;stroke-linejoin:round" />
      <path
         d="M 824.63039,132.45906 770.95895,0.1527334 791.92826,4.3965134 743.24951,132.45906 h -42.93715 l 83.87722,-192.218637 83.87726,192.218637 z"
         id="path563"
         style="font-weight:bold;font-size:333.333px;font-family:'Reem Kufi Fun';-inkscape-font-specification:'Reem Kufi Fun Bold';text-align:center;text-anchor:middle;fill:#056235;stroke-width:22.4671;stroke-linecap:round;stroke-linejoin:round" />
    </g>
    <g
       aria-label="V"
       id="text505"
       style="font-weight:bold;font-size:333.333px;font-family:'Reem Kufi Fun';-inkscape-font-specification:'Reem Kufi Fun Bold';text-align:center;text-anchor:middle;fill:#056235;stroke-width:30;stroke-linecap:round;stroke-linejoin:round"
       transform="matrix(0.67358018,0,0,0.67358018,1292.1673,35.832865)" />
    <rect
       style="fill:#056235;fill-opacity:1;stroke-width:30;stroke-linecap:round;stroke-linejoin:round"
       id="rect5532"
       width="33.549713"
       height="17.893181"
       x="167.92253"
       y="-391.25201" />
    <rect
       style="fill:#171717;fill-opacity:1;stroke-width:30;stroke-linecap:round;stroke-linejoin:round"
       id="rect5586"
       width="16.774857"
       height="22.366476"
       x="167.92253"
       y="-485.19122" />
  </g>
</svg>
