<?xml version="1.0" encoding="UTF-8" standalone="no"?>
<!-- Created with Inkscape (http://www.inkscape.org/) -->

<svg
   width="1879"
   height="977"
   viewBox="0 0 1879 977"
   version="1.1"
   id="svg5"
   inkscape:version="1.2.2 (732a01da63, 2022-12-09)"
   sodipodi:docname="glassesherobackgroundwhite.svg"
   xmlns:inkscape="http://www.inkscape.org/namespaces/inkscape"
   xmlns:sodipodi="http://sodipodi.sourceforge.net/DTD/sodipodi-0.dtd"
   xmlns="http://www.w3.org/2000/svg"
   xmlns:svg="http://www.w3.org/2000/svg">
  <sodipodi:namedview
     id="namedview7"
     pagecolor="#505050"
     bordercolor="#eeeeee"
     borderopacity="1"
     inkscape:showpageshadow="0"
     inkscape:pageopacity="0"
     inkscape:pagecheckerboard="0"
     inkscape:deskcolor="#505050"
     inkscape:document-units="px"
     showgrid="false"
     inkscape:zoom="0.31614583"
     inkscape:cx="605.73312"
     inkscape:cy="351.10379"
     inkscape:window-width="1920"
     inkscape:window-height="1057"
     inkscape:window-x="-8"
     inkscape:window-y="-8"
     inkscape:window-maximized="1"
     inkscape:current-layer="layer1" />
  <defs
     id="defs2" />
  <g
     inkscape:label="Ebene 1"
     inkscape:groupmode="layer"
     id="layer1">
    <rect
       style="fill:#f3f3f3;stroke:none;stroke-width:30;stroke-linecap:round;stroke-linejoin:round;fill-opacity:1"
       id="rect234"
       width="1879"
       height="977"
       x="0"
       y="0" />
    <text
       xml:space="preserve"
       style="font-size:333.333px;font-family:'Reem Kufi Fun';-inkscape-font-specification:'Reem Kufi Fun';text-align:center;text-anchor:middle;fill:#171717;stroke-width:30;stroke-linecap:round;stroke-linejoin:round"
       x="357.86359"
       y="-1270.4158"
       id="text340"><tspan
         sodipodi:role="line"
         id="tspan338"
         x="357.86359"
         y="-1270.4158"
         style="font-style:normal;font-variant:normal;font-weight:bold;font-stretch:normal;font-family:'Reem Kufi Fun';-inkscape-font-specification:'Reem Kufi Fun Bold'">AA</tspan></text>
    <g
       aria-label="V"
       transform="scale(-1)"
       id="text400"
       style="font-weight:bold;font-size:333.333px;font-family:'Reem Kufi Fun';-inkscape-font-specification:'Reem Kufi Fun Bold';text-align:center;text-anchor:middle;fill:#171717;stroke-width:30;stroke-linecap:round;stroke-linejoin:round;fill-opacity:1" />
    <rect
       style="fill:#056235;fill-opacity:1;stroke-width:30;stroke-linecap:round;stroke-linejoin:round"
       id="rect5532"
       width="33.549713"
       height="17.893181"
       x="-250.50453"
       y="433.90964" />
    <rect
       style="fill:#171717;fill-opacity:1;stroke-width:30;stroke-linecap:round;stroke-linejoin:round"
       id="rect5586"
       width="16.774857"
       height="22.366476"
       x="-250.50453"
       y="339.97043" />
    <g
       aria-label="SPCTRALENSE"
       id="text303"
       style="font-weight:bold;font-size:333.333px;font-family:'Reem Kufi Fun';-inkscape-font-specification:'Reem Kufi Fun Bold';text-align:center;text-anchor:middle;fill:#056235;stroke-width:30;stroke-linecap:round;stroke-linejoin:round"
       transform="translate(23.346383,70.599757)">
      <rect
         style="fill:#ffffff;fill-opacity:1;stroke:none;stroke-width:12.496;stroke-linecap:round;stroke-linejoin:round;stroke-dasharray:none;stroke-opacity:1"
         id="rect6903"
         width="512"
         height="512"
         x="2156.3628"
         y="303.81003"
         inkscape:label="Background" />
      <g
         id="g42900"
         inkscape:label="GrayscaleColors"
         transform="translate(2156.3628,376.19472)">
        <rect
           style="fill:#f3f3f3;fill-opacity:1;stroke:#f3f3f3;stroke-width:12.496;stroke-linecap:round;stroke-linejoin:round;stroke-dasharray:none;stroke-opacity:1"
           id="rect234-9-9"
           width="38.83503"
           height="19.417513"
           x="6.2479095"
           y="294.64536" />
        <rect
           style="fill:#d7d7d7;fill-opacity:1;stroke:#d7d7d7;stroke-width:12.4959;stroke-linecap:round;stroke-linejoin:round;stroke-opacity:1"
           id="rect234-0-5-6"
           width="38.83503"
           height="19.417513"
           x="63.831551"
           y="294.64536" />
        <rect
           style="fill:#adadad;fill-opacity:1;stroke:#adadad;stroke-width:12.4959;stroke-linecap:round;stroke-linejoin:round;stroke-opacity:1"
           id="rect234-7-8-1"
           width="38.83503"
           height="19.417513"
           x="121.41518"
           y="294.64536" />
        <rect
           style="fill:#757575;fill-opacity:1;stroke:#757575;stroke-width:12.4959;stroke-linecap:round;stroke-linejoin:round;stroke-opacity:1"
           id="rect234-0-2-66-4"
           width="38.83503"
           height="19.417513"
           x="178.99883"
           y="294.64536" />
        <rect
           style="fill:#414141;fill-opacity:1;stroke:#414141;stroke-width:12.4959;stroke-linecap:round;stroke-linejoin:round;stroke-opacity:1"
           id="rect234-5-7-9"
           width="38.83503"
           height="19.417513"
           x="236.58249"
           y="294.64536" />
        <rect
           style="fill:#2e2e2e;fill-opacity:1;stroke:#2e2e2e;stroke-width:12.4959;stroke-linecap:round;stroke-linejoin:round;stroke-opacity:1"
           id="rect234-0-4-2-8"
           width="38.83503"
           height="19.417513"
           x="294.16611"
           y="294.64536" />
        <rect
           style="fill:#1e1e1e;fill-opacity:1;stroke:#1e1e1e;stroke-width:12.496;stroke-linecap:round;stroke-linejoin:round;stroke-dasharray:none;stroke-opacity:1"
           id="rect234-7-3-7-4"
           width="38.83503"
           height="19.417513"
           x="351.74976"
           y="294.64536" />
        <rect
           style="fill:#171717;fill-opacity:1;stroke:#171717;stroke-width:12.4959;stroke-linecap:round;stroke-linejoin:round;stroke-opacity:1"
           id="rect234-0-2-6-7-9"
           width="38.83503"
           height="19.417513"
           x="409.3334"
           y="294.64536" />
        <rect
           style="mix-blend-mode:normal;fill:#080808;fill-opacity:1;stroke:#080808;stroke-width:12.4959;stroke-linecap:round;stroke-linejoin:round;stroke-opacity:1"
           id="rect234-0-2-6-3-3-6"
           width="38.83503"
           height="19.417513"
           x="466.91705"
           y="294.64536" />
      </g>
      <g
         id="g42889"
         inkscape:label="BrandColors"
         transform="translate(2156.3628,376.19472)">
        <rect
           style="fill:#f0f3f2;fill-opacity:1;stroke:#f0f3f2;stroke-width:12.496;stroke-linecap:round;stroke-linejoin:round;stroke-dasharray:none;stroke-opacity:1"
           id="rect234-8"
           width="38.83503"
           height="19.417513"
           x="6.2479272"
           y="246.29124" />
        <rect
           style="fill:#d1ebdd;fill-opacity:1;stroke:#d1ebdd;stroke-width:12.4959;stroke-linecap:round;stroke-linejoin:round;stroke-opacity:1"
           id="rect234-0"
           width="38.83503"
           height="19.417513"
           x="63.831566"
           y="246.29124" />
        <rect
           style="fill:#acedcc;fill-opacity:1;stroke:#acedcc;stroke-width:12.4959;stroke-linecap:round;stroke-linejoin:round;stroke-opacity:1"
           id="rect234-7"
           width="38.83503"
           height="19.417513"
           x="121.41521"
           y="246.29124" />
        <rect
           style="fill:#5cd69a;fill-opacity:1;stroke:#5cd69a;stroke-width:12.4959;stroke-linecap:round;stroke-linejoin:round;stroke-opacity:1"
           id="rect234-0-2"
           width="38.83503"
           height="19.417513"
           x="178.99884"
           y="246.29124" />
        <rect
           style="fill:#16cc74;fill-opacity:1;stroke:#16cc74;stroke-width:12.4959;stroke-linecap:round;stroke-linejoin:round;stroke-opacity:1"
           id="rect234-5"
           width="38.83503"
           height="19.417513"
           x="236.58249"
           y="246.29124" />
        <rect
           style="fill:#0da55d;fill-opacity:1;stroke:#0da55d;stroke-width:12.4959;stroke-linecap:round;stroke-linejoin:round;stroke-opacity:1"
           id="rect234-0-4"
           width="38.83503"
           height="19.417513"
           x="294.16611"
           y="246.29124" />
        <rect
           style="fill:#0a9051;fill-opacity:1;stroke:#0a9051;stroke-width:12.496;stroke-linecap:round;stroke-linejoin:round;stroke-dasharray:none;stroke-opacity:1"
           id="rect234-7-3"
           width="38.83503"
           height="19.417513"
           x="351.74976"
           y="246.29124" />
        <rect
           style="fill:#057b42;fill-opacity:1;stroke:#057b42;stroke-width:12.4959;stroke-linecap:round;stroke-linejoin:round;stroke-opacity:1"
           id="rect234-0-2-6"
           width="38.83503"
           height="19.417513"
           x="409.3334"
           y="246.29124" />
        <rect
           style="mix-blend-mode:normal;fill:#056235;fill-opacity:1;stroke:#056235;stroke-width:12.4959;stroke-linecap:round;stroke-linejoin:round;stroke-opacity:1"
           id="rect234-0-2-6-3"
           width="38.83503"
           height="19.417513"
           x="466.91705"
           y="246.29124" />
      </g>
    </g>
    <g
       aria-label="V"
       id="text505"
       style="font-weight:bold;font-size:333.333px;font-family:'Reem Kufi Fun';-inkscape-font-specification:'Reem Kufi Fun Bold';text-align:center;text-anchor:middle;fill:#056235;stroke-width:30;stroke-linecap:round;stroke-linejoin:round"
       transform="matrix(0.67358018,0,0,0.67358018,1292.1673,35.832865)" />
    <path
       d="m 217.19832,344.50547 q -9.43011,-5.16407 -19.30928,-8.53197 -9.65464,-3.3679 -18.18665,-3.3679 -10.55274,0 -16.61496,4.26598 -6.06221,4.26599 -6.06221,12.79803 0,5.83765 4.49053,10.55271 4.71505,4.49056 11.8999,8.08296 7.40938,3.59241 15.2678,6.5113 9.65464,3.5924 18.6357,9.20555 8.98106,5.38864 14.81875,15.04327 5.83769,9.43012 5.83769,25.14697 0,12.57352 -6.51127,23.3508 -6.51127,10.77728 -19.08475,17.51302 -12.57348,6.5113 -30.98466,6.5113 -14.14517,0 -28.96392,-4.26599 -14.59422,-4.26605 -27.61676,-13.4716 l 14.3697,-25.37148 q 8.53201,6.28673 19.53381,10.32821 11.00179,4.04148 19.75833,4.04148 5.83769,0 11.67538,-1.57173 6.06221,-1.79617 9.87916,-5.83765 4.04148,-4.04148 4.04148,-11.22636 0,-4.93957 -3.3679,-8.98105 -3.14337,-4.04148 -8.75653,-7.40938 -5.38864,-3.3679 -11.89991,-5.83765 -7.6339,-2.91889 -15.71685,-6.7358 -8.08296,-3.81698 -15.2678,-9.20562 -6.96032,-5.61314 -11.45086,-13.69611 -4.266,-8.30746 -4.266,-20.2074 0,-14.36969 6.28674,-24.9224 6.51127,-10.55278 18.18665,-16.615 11.67538,-6.28673 26.94318,-6.96031 19.98286,0 32.33182,4.71506 12.57348,4.71506 22.45265,11.22636 z"
       id="path566-9"
       style="font-weight:bold;font-size:333.333px;font-family:'Reem Kufi Fun';-inkscape-font-specification:'Reem Kufi Fun Bold';text-align:center;text-anchor:middle;fill:#d1ebdd;stroke-width:20.2074;stroke-linecap:round;stroke-linejoin:round;fill-opacity:1"
       transform="translate(23.346383,70.599757)" />
    <path
       d="m 309.92781,304.53974 q 30.76013,0 47.15057,15.26784 16.39043,15.04326 16.39043,40.41474 0,10.1037 -3.14337,20.43191 -2.91884,10.1037 -9.65464,18.41117 -6.51127,8.30753 -17.73759,13.4716 -11.00181,4.93957 -27.16771,4.93957 h -23.35075 v 52.31468 H 259.8584 V 304.53974 Z m 5.61317,81.27863 q 7.40936,0 12.34895,-2.46982 4.93959,-2.69432 7.6339,-6.51123 2.91885,-4.04148 4.04148,-8.30747 1.34715,-4.26605 1.34715,-7.40938 0,-2.46982 -0.8981,-6.5113 -0.67358,-4.26598 -3.14337,-8.53197 -2.46979,-4.26605 -7.6339,-7.18487 -4.93959,-2.91883 -13.47159,-2.91883 h -23.35075 v 49.84487 z"
       id="path568-4"
       style="font-weight:bold;font-size:333.333px;font-family:'Reem Kufi Fun';-inkscape-font-specification:'Reem Kufi Fun Bold';text-align:center;text-anchor:middle;fill:#d1ebdd;stroke-width:20.2074;stroke-linecap:round;stroke-linejoin:round;fill-opacity:1"
       transform="translate(23.346383,70.599757)" />
    <path
       d="m 526.59581,456.09514 q -2.69432,2.24531 -10.10369,6.06222 -7.18485,3.81698 -17.73759,6.73581 -10.55275,2.91882 -23.35076,2.69432 -19.53381,-0.44908 -35.02614,-6.96031 -15.2678,-6.7358 -26.04507,-18.18666 -10.55275,-11.45087 -16.16591,-26.26963 -5.61316,-14.8187 -5.61316,-31.6582 0,-18.86025 5.61316,-34.5771 5.83769,-15.71684 16.39044,-27.16771 10.77727,-11.45086 25.59602,-17.73759 14.81875,-6.28672 32.78087,-6.28672 16.61496,0 29.41297,4.49049 12.79801,4.49055 20.88096,9.65469 l -12.79801,30.76012 q -5.61316,-4.26599 -15.04327,-8.75654 -9.20559,-4.71507 -21.33002,-4.71507 -12.57348,0 -23.57528,6.96031 -10.77728,6.96031 -17.51307,18.86025 -6.51127,11.67536 -6.51127,26.71863 0,15.94142 6.06222,28.06586 6.06221,11.89988 17.28854,18.63568 11.22632,6.7358 26.2696,6.7358 13.24706,0 22.67718,-4.26599 9.43011,-4.26605 14.36969,-8.98111 z"
       id="path570-0"
       style="font-weight:bold;font-size:333.333px;font-family:'Reem Kufi Fun';-inkscape-font-specification:'Reem Kufi Fun Bold';text-align:center;text-anchor:middle;fill:#d1ebdd;stroke-width:20.2074;stroke-linecap:round;stroke-linejoin:round;fill-opacity:1"
       transform="translate(23.346383,70.599757)" />
    <path
       d="M 547.92593,304.53974 H 659.29108 V 335.9735 H 619.10083 V 469.79125 H 586.54449 V 335.9735 h -38.61856 z"
       id="path572-8"
       style="font-weight:bold;font-size:333.333px;font-family:'Reem Kufi Fun';-inkscape-font-specification:'Reem Kufi Fun Bold';text-align:center;text-anchor:middle;fill:#d1ebdd;stroke-width:20.2074;stroke-linecap:round;stroke-linejoin:round;fill-opacity:1"
       transform="translate(23.346383,70.599757)" />
    <path
       d="m 740.79435,304.53974 q 20.88092,0 35.25068,6.96037 14.36968,6.7358 21.77907,19.30925 7.63388,12.34895 7.63388,29.41296 0,10.1037 -3.14339,20.20741 -2.91883,10.1037 -9.87913,18.41116 -6.73581,8.30747 -17.96217,13.47161 -11.22629,4.93956 -27.84129,4.93956 h -23.35073 v 52.53919 H 690.7249 V 304.53974 Z m 5.61315,81.27863 q 9.8792,0 15.26777,-4.04148 5.61321,-4.26599 7.85846,-9.8792 2.24524,-5.83765 2.24524,-10.55271 0,-2.69433 -0.89808,-6.73581 -0.67358,-4.26598 -3.1434,-8.53197 -2.46975,-4.26605 -7.63388,-7.18487 -4.93957,-2.91883 -13.47161,-2.91883 h -23.35073 v 49.84487 z m 30.53561,20.2074 40.86382,63.76548 h -37.94499 l -41.76191,-62.86739 z"
       id="path574-5"
       style="font-weight:bold;font-size:333.333px;font-family:'Reem Kufi Fun';-inkscape-font-specification:'Reem Kufi Fun Bold';text-align:center;text-anchor:middle;fill:#d1ebdd;stroke-width:20.2074;stroke-linecap:round;stroke-linejoin:round;fill-opacity:1"
       transform="translate(23.346383,70.599757)" />
    <path
       d="m 1016.737,304.70812 h 32.5563 v 133.81781 h 77.6862 v 31.4337 H 1016.737 Z"
       id="path578-1"
       style="font-weight:bold;font-size:333.333px;font-family:'Reem Kufi Fun';-inkscape-font-specification:'Reem Kufi Fun Bold';text-align:center;text-anchor:middle;fill:#d1ebdd;stroke-width:20.2074;stroke-linecap:round;stroke-linejoin:round;fill-opacity:1"
       transform="translate(23.346383,70.599757)" />
    <path
       d="m 1160.6585,304.70812 h 112.7124 v 31.43376 h -80.156 v 35.25061 h 70.9504 v 31.43376 h -70.9504 v 35.69968 h 83.2994 v 31.4337 h -115.8558 z"
       id="path580-8"
       style="font-weight:bold;font-size:333.333px;font-family:'Reem Kufi Fun';-inkscape-font-specification:'Reem Kufi Fun Bold';text-align:center;text-anchor:middle;fill:#d1ebdd;stroke-width:20.2074;stroke-linecap:round;stroke-linejoin:round;fill-opacity:1"
       transform="translate(23.346383,70.599757)" />
    <path
       d="m 1458.1563,476.69543 -125.2857,-113.16133 9.6546,5.38864 0.6736,101.03689 h -33.0054 V 298.19689 h 1.3472 l 122.5914,112.71232 -7.1848,-3.14339 -0.6736,-103.0577 h 32.7809 v 171.98731 z"
       id="path582-1"
       style="font-weight:bold;font-size:333.333px;font-family:'Reem Kufi Fun';-inkscape-font-specification:'Reem Kufi Fun Bold';text-align:center;text-anchor:middle;fill:#d1ebdd;stroke-width:20.2074;stroke-linecap:round;stroke-linejoin:round;fill-opacity:1"
       transform="translate(23.346383,70.599757)" />
    <path
       d="m 1589.9536,344.67385 q -9.4302,-5.16407 -19.3093,-8.53197 -9.6547,-3.3679 -18.1867,-3.3679 -10.5527,0 -16.615,4.26598 -6.0622,4.26599 -6.0622,12.79803 0,5.83765 4.4906,10.55271 4.715,4.49056 11.8999,8.08296 7.4093,3.59241 15.2678,6.5113 9.6546,3.5924 18.6357,9.20555 8.9811,5.38864 14.8187,15.04327 5.8377,9.43012 5.8377,25.14697 0,12.57352 -6.5113,23.3508 -6.5112,10.77728 -19.0847,17.51302 -12.5735,6.5113 -30.9846,6.5113 -14.1452,0 -28.964,-4.26599 -14.5942,-4.26605 -27.6168,-13.4716 l 14.3698,-25.37148 q 8.532,6.28673 19.5338,10.32821 11.0017,4.04148 19.7583,4.04148 5.8377,0 11.6753,-1.57173 6.0623,-1.79617 9.8792,-5.83765 4.0415,-4.04148 4.0415,-11.22636 0,-4.93957 -3.3679,-8.98105 -3.1434,-4.04148 -8.7565,-7.40938 -5.3887,-3.3679 -11.8999,-5.83765 -7.6339,-2.91889 -15.7168,-6.7358 -8.083,-3.81698 -15.2679,-9.20562 -6.9603,-5.61314 -11.4508,-13.69611 -4.266,-8.30746 -4.266,-20.2074 0,-14.36969 6.2867,-24.9224 6.5113,-10.55278 18.1867,-16.615 11.6753,-6.28673 26.9432,-6.96031 19.9828,0 32.3318,4.71506 12.5735,4.71506 22.4526,11.22636 z"
       id="path584-9"
       style="font-weight:bold;font-size:333.333px;font-family:'Reem Kufi Fun';-inkscape-font-specification:'Reem Kufi Fun Bold';text-align:center;text-anchor:middle;fill:#d1ebdd;stroke-width:20.2074;stroke-linecap:round;stroke-linejoin:round;fill-opacity:1"
       transform="translate(23.346383,70.599757)" />
    <path
       d="m 1632.6137,304.70812 h 112.7122 v 31.43376 H 1665.17 v 35.25061 h 70.9504 v 31.43376 H 1665.17 v 35.69968 h 83.2993 v 31.4337 h -115.8556 z"
       id="path586-1"
       style="font-weight:bold;font-size:333.333px;font-family:'Reem Kufi Fun';-inkscape-font-specification:'Reem Kufi Fun Bold';text-align:center;text-anchor:middle;fill:#d1ebdd;stroke-width:20.2074;stroke-linecap:round;stroke-linejoin:round;fill-opacity:1"
       transform="translate(23.346383,70.599757)" />
    <path
       d="m 957.71275,501.25571 -53.67144,-132.30633 20.96931,4.24378 -48.67875,128.06255 h -42.93715 l 83.87722,-192.21864 83.87726,192.21864 z"
       id="path563"
       style="font-weight:bold;font-size:333.333px;font-family:'Reem Kufi Fun';-inkscape-font-specification:'Reem Kufi Fun Bold';text-align:center;text-anchor:middle;fill:#d1ebdd;stroke-width:22.4671;stroke-linecap:round;stroke-linejoin:round;fill-opacity:1"
       transform="translate(23.346383,70.599757)" />
  </g>
</svg>
