<svg id="visual" viewBox="0 0 1920 1080" width="1920" height="1080" xmlns="http://www.w3.org/2000/svg" xmlns:xlink="http://www.w3.org/1999/xlink" version="1.1"><rect x="0" y="0" width="1920" height="1080" fill="#001220"></rect><path d="M0 208L35.5 207.2C71 206.3 142 204.7 213.2 204.7C284.3 204.7 355.7 206.3 426.8 207.3C498 208.3 569 208.7 640 210.7C711 212.7 782 216.3 853.2 217.8C924.3 219.3 995.7 218.7 1066.8 222.3C1138 226 1209 234 1280 236.3C1351 238.7 1422 235.3 1493.2 236.3C1564.3 237.3 1635.7 242.7 1706.8 242.3C1778 242 1849 236 1884.5 233L1920 230L1920 0L1884.5 0C1849 0 1778 0 1706.8 0C1635.7 0 1564.3 0 1493.2 0C1422 0 1351 0 1280 0C1209 0 1138 0 1066.8 0C995.7 0 924.3 0 853.2 0C782 0 711 0 640 0C569 0 498 0 426.8 0C355.7 0 284.3 0 213.2 0C142 0 71 0 35.5 0L0 0Z" fill="#000000"></path><path d="M0 161L35.5 162.7C71 164.3 142 167.7 213.2 172C284.3 176.3 355.7 181.7 426.8 184.5C498 187.3 569 187.7 640 186.7C711 185.7 782 183.3 853.2 178.2C924.3 173 995.7 165 1066.8 161.2C1138 157.3 1209 157.7 1280 164.3C1351 171 1422 184 1493.2 186.5C1564.3 189 1635.7 181 1706.8 179.2C1778 177.3 1849 181.7 1884.5 183.8L1920 186L1920 0L1884.5 0C1849 0 1778 0 1706.8 0C1635.7 0 1564.3 0 1493.2 0C1422 0 1351 0 1280 0C1209 0 1138 0 1066.8 0C995.7 0 924.3 0 853.2 0C782 0 711 0 640 0C569 0 498 0 426.8 0C355.7 0 284.3 0 213.2 0C142 0 71 0 35.5 0L0 0Z" fill="#0b0b0b"></path><path d="M0 119L35.5 124.7C71 130.3 142 141.7 213.2 147.8C284.3 154 355.7 155 426.8 155C498 155 569 154 640 152.8C711 151.7 782 150.3 853.2 148.5C924.3 146.7 995.7 144.3 1066.8 141.8C1138 139.3 1209 136.7 1280 138.3C1351 140 1422 146 1493.2 143.5C1564.3 141 1635.7 130 1706.8 125.2C1778 120.3 1849 121.7 1884.5 122.3L1920 123L1920 0L1884.5 0C1849 0 1778 0 1706.8 0C1635.7 0 1564.3 0 1493.2 0C1422 0 1351 0 1280 0C1209 0 1138 0 1066.8 0C995.7 0 924.3 0 853.2 0C782 0 711 0 640 0C569 0 498 0 426.8 0C355.7 0 284.3 0 213.2 0C142 0 71 0 35.5 0L0 0Z" fill="#141414"></path><path d="M0 114L35.5 109.5C71 105 142 96 213.2 93.7C284.3 91.3 355.7 95.7 426.8 96C498 96.3 569 92.7 640 92.2C711 91.7 782 94.3 853.2 95.2C924.3 96 995.7 95 1066.8 92.8C1138 90.7 1209 87.3 1280 86.8C1351 86.3 1422 88.7 1493.2 93.7C1564.3 98.7 1635.7 106.3 1706.8 104.8C1778 103.3 1849 92.7 1884.5 87.3L1920 82L1920 0L1884.5 0C1849 0 1778 0 1706.8 0C1635.7 0 1564.3 0 1493.2 0C1422 0 1351 0 1280 0C1209 0 1138 0 1066.8 0C995.7 0 924.3 0 853.2 0C782 0 711 0 640 0C569 0 498 0 426.8 0C355.7 0 284.3 0 213.2 0C142 0 71 0 35.5 0L0 0Z" fill="#1b1b1b"></path><path d="M0 39L35.5 42.2C71 45.3 142 51.7 213.2 51.7C284.3 51.7 355.7 45.3 426.8 47.2C498 49 569 59 640 59C711 59 782 49 853.2 48C924.3 47 995.7 55 1066.8 57.7C1138 60.3 1209 57.7 1280 58.7C1351 59.7 1422 64.3 1493.2 63.7C1564.3 63 1635.7 57 1706.8 54C1778 51 1849 51 1884.5 51L1920 51L1920 0L1884.5 0C1849 0 1778 0 1706.8 0C1635.7 0 1564.3 0 1493.2 0C1422 0 1351 0 1280 0C1209 0 1138 0 1066.8 0C995.7 0 924.3 0 853.2 0C782 0 711 0 640 0C569 0 498 0 426.8 0C355.7 0 284.3 0 213.2 0C142 0 71 0 35.5 0L0 0Z" fill="#212121"></path></svg>